<svg xmlns="http://www.w3.org/2000/svg" viewBox="0 0 84 84"><defs><style>.cls-1{fill:#fff;}.cls-2{fill:#fc5813;}</style></defs><title>arial-icon</title><g id="vector"><polyline class="cls-1" points="82.37 39.55 82.37 44.06 41.55 68.19 1.63 43.76 1.63 38.39"/><path d="M41.55,69.82a1.63,1.63,0,0,1-.85-.24L.78,45.15A1.63,1.63,0,0,1,0,43.76V38.39a1.63,1.63,0,0,1,3.26,0v4.46L41.57,66.29,80.74,43.13V39.55a1.63,1.63,0,1,1,3.26,0v4.51a1.63,1.63,0,0,1-.8,1.4L42.38,69.6A1.63,1.63,0,0,1,41.55,69.82Z"/><polygon class="cls-2" points="82.37 38.69 41.55 62.82 1.63 38.39 41.55 15.15 82.37 38.69"/><path d="M41.55,64.45a1.63,1.63,0,0,1-.85-.24L.78,39.78a1.63,1.63,0,0,1,0-2.8L40.73,13.74a1.63,1.63,0,0,1,1.63,0L83.18,37.28a1.63,1.63,0,0,1,0,2.81L42.38,64.22A1.63,1.63,0,0,1,41.55,64.45Zm-36.75-26,36.76,22.5L79.14,38.71,41.56,17Z"/><path d="M41.55,69.71A1.51,1.51,0,0,1,40,68.19V62.82a1.51,1.51,0,1,1,3,0v5.37A1.51,1.51,0,0,1,41.55,69.71Z"/><path d="M45.46,22.25c1.31.83.64,1.89-1.5,2.38S39,24.84,37.7,24s-.64-1.89,1.5-2.38S44.14,21.43,45.46,22.25Z"/><path d="M54.88,27.45c1.2.75.59,1.72-1.36,2.17a8.82,8.82,0,0,1-5.69-.56c-1.2-.75-.58-1.72,1.36-2.16A8.82,8.82,0,0,1,54.88,27.45Z"/><path d="M34.87,27.45c1.2.75.59,1.72-1.36,2.17a8.82,8.82,0,0,1-5.69-.56c-1.2-.75-.58-1.72,1.36-2.16A8.82,8.82,0,0,1,34.87,27.45Z"/><path d="M63.36,32c1,.65.5,1.49-1.18,1.87a7.6,7.6,0,0,1-4.91-.48c-1-.65-.5-1.48,1.18-1.87A7.6,7.6,0,0,1,63.36,32Z"/><path d="M43.93,31.29c1,.65.5,1.49-1.18,1.87a7.6,7.6,0,0,1-4.91-.48c-1-.65-.5-1.48,1.18-1.87A7.6,7.6,0,0,1,43.93,31.29Z"/><path d="M25.77,31.87c1,.65.5,1.49-1.18,1.87a7.6,7.6,0,0,1-4.91-.48c-1-.65-.5-1.48,1.18-1.87A7.6,7.6,0,0,1,25.77,31.87Z"/><path d="M71,36.49c.91.58.45,1.31-1,1.65a6.73,6.73,0,0,1-4.35-.43c-.91-.57-.45-1.31,1-1.65A6.73,6.73,0,0,1,71,36.49Z"/><path d="M52.3,35.79c.91.58.45,1.31-1,1.65A6.73,6.73,0,0,1,46.92,37c-.91-.57-.45-1.31,1-1.65A6.73,6.73,0,0,1,52.3,35.79Z"/><path d="M35.2,36c.91.58.45,1.31-1,1.65a6.73,6.73,0,0,1-4.35-.43c-.91-.57-.45-1.31,1-1.65A6.73,6.73,0,0,1,35.2,36Z"/><path d="M61.37,40.06c.79.5.39,1.14-.9,1.44a5.85,5.85,0,0,1-3.78-.37c-.79-.5-.39-1.14.9-1.44A5.85,5.85,0,0,1,61.37,40.06Z"/><path d="M44.15,40.76c.79.5.39,1.14-.9,1.44a5.85,5.85,0,0,1-3.78-.37c-.79-.5-.39-1.14.9-1.44A5.85,5.85,0,0,1,44.15,40.76Z"/><path d="M52.52,44.71c.63.4.31.91-.72,1.15a4.67,4.67,0,0,1-3-.3c-.63-.4-.31-.91.72-1.15A4.67,4.67,0,0,1,52.52,44.71Z"/></g></svg>