<svg xmlns="http://www.w3.org/2000/svg" viewBox="0 0 106 106"><defs><style>.cls-1{fill:#fc5813;}.cls-2{fill:#434343;}.cls-3{fill:#fff;}</style></defs><title>arial-icon</title><g id="vector"><polygon class="cls-1" points="57.96 89.46 75.05 84.61 75.05 9.59 57.96 13.21 57.96 89.46"/><path class="cls-2" d="M58,90.47a1,1,0,0,1-.61-.2,1,1,0,0,1-.4-.81V13.21a1,1,0,0,1,.81-1L74.84,8.6a1,1,0,0,1,.85.2,1,1,0,0,1,.38.78v75a1,1,0,0,1-.74,1L58.24,90.43A1,1,0,0,1,58,90.47ZM59,14v74.1L74,83.85v-73Z"/><polyline class="cls-3" points="26.02 88.87 26.02 92.49 48.14 102.78 82.98 90.97 82.98 87.44"/><path class="cls-2" d="M48.14,103.79a1,1,0,0,1-.43-.1L25.59,93.4a1,1,0,0,1-.59-.91V88.87a1,1,0,0,1,2,0v3l21.17,9.85L82,90.25V87.44a1,1,0,0,1,2,0V91a1,1,0,0,1-.69,1L48.47,103.73A1,1,0,0,1,48.14,103.79Z"/><polyline class="cls-1" points="82.98 87.44 75.05 84.61 57.96 89.46 42.44 83.51 26.02 88.87 48.07 98.98 82.98 87.44"/><path class="cls-2" d="M48.07,100a1,1,0,0,1-.43-.09L25.59,89.79a1,1,0,0,1,.11-1.87l16.42-5.36a1,1,0,0,1,.68,0L58,88.4l16.76-4.75a1,1,0,0,1,.62,0l7.93,2.83a1,1,0,0,1,0,1.91L48.39,99.94A1,1,0,0,1,48.07,100ZM28.79,89,48.13,97.9,79.87,87.4,75,85.67,58.24,90.43a1,1,0,0,1-.65,0L42.41,84.58Z"/><polygon class="cls-1" points="57.96 89.46 57.96 13.21 42.94 7.21 42.94 83.7 57.96 89.46"/><path class="cls-2" d="M58,90.47a1,1,0,0,1-.37-.07l-15-5.75a1,1,0,0,1-.65-.94V7.21a1,1,0,0,1,.45-.84,1,1,0,0,1,.95-.1l15,6a1,1,0,0,1,.64.94V89.46a1,1,0,0,1-.44.83A1,1,0,0,1,58,90.47ZM44,83l13,5V13.89L44,8.7Z"/><polygon class="cls-1" points="42.94 7.21 61.15 3.01 75.05 9.59 57.91 12.9 42.94 7.21"/><path class="cls-2" d="M57.9,13.91a1,1,0,0,1-.36-.07l-15-5.69a1,1,0,0,1,.13-1.93L60.92,2a1,1,0,0,1,.67.07l13.9,6.58a1,1,0,0,1-.24,1.9L58.1,13.89ZM46.41,7.44,58,11.85,71.83,9.18,61,4.07Z"/><polyline class="cls-1" points="57.47 62.47 40.21 66.6 27.95 61.12 27.95 68.66 40.21 73.58 57.47 69.53 57.47 62.47"/><path class="cls-2" d="M40.21,74.59a1,1,0,0,1-.38-.07L27.57,69.59a1,1,0,0,1-.64-.94V61.12a1,1,0,0,1,.47-.85,1,1,0,0,1,1-.07l11.94,5.34,16.92-4.05a1,1,0,0,1,.87.19,1,1,0,0,1,.39.79v7.06a1,1,0,0,1-.78,1L40.45,74.56ZM29,68l11.32,4.55,16.16-3.8v-5l-16,3.83a1,1,0,0,1-.66-.06L29,62.68Z"/><path class="cls-2" d="M40.21,74.59a1,1,0,0,1-1-1v-7a1,1,0,0,1,2,0v7A1,1,0,0,1,40.21,74.59Z"/><polygon class="cls-3" points="27.95 61.12 42.94 57.36 57.47 62.47 40.21 66.6 27.95 61.12"/><path class="cls-2" d="M40.21,67.61a1,1,0,0,1-.42-.09L27.54,62a1,1,0,0,1,.17-1.9l15-3.75a1,1,0,0,1,.59,0l14.53,5.1a1,1,0,0,1-.1,1.93L40.45,67.58ZM31,61.39l9.28,4.15L53.9,62.28l-11-3.87Z"/><polyline class="cls-1" points="57.91 33.25 40.65 37.38 28.39 31.9 28.39 39.44 40.65 44.36 57.91 40.31 57.91 33.25"/><path class="cls-2" d="M40.64,45.37a1,1,0,0,1-.38-.07L28,40.37a1,1,0,0,1-.64-.94V31.9a1,1,0,0,1,.47-.85,1,1,0,0,1,1-.07l11.94,5.34,16.92-4.05a1,1,0,0,1,.87.19,1,1,0,0,1,.39.79v7.06a1,1,0,0,1-.78,1L40.88,45.35ZM29.41,38.76l11.32,4.55,16.16-3.8v-5l-16,3.83a1,1,0,0,1-.66-.06L29.41,33.46Z"/><path class="cls-2" d="M40.64,45.37a1,1,0,0,1-1-1v-7a1,1,0,0,1,2,0v7A1,1,0,0,1,40.64,45.37Z"/><polygon class="cls-3" points="28.39 31.9 43.38 28.14 57.91 33.25 40.65 37.38 28.39 31.9"/><path class="cls-2" d="M40.64,38.39a1,1,0,0,1-.42-.09L28,32.82a1,1,0,0,1,.17-1.9l15-3.75a1,1,0,0,1,.59,0l14.53,5.1a1,1,0,0,1-.1,1.93L40.88,38.37Zm-9.18-6.23,9.28,4.15,13.59-3.26-11-3.87Z"/><path class="cls-2" d="M71.41,38.49a1.66,1.66,0,0,0-.12-2.36,1.7,1.7,0,0,0-2.38.12A1.66,1.66,0,0,0,69,38.61,1.7,1.7,0,0,0,71.41,38.49Z"/><path class="cls-2" d="M71.41,49.24a1.66,1.66,0,0,0-.12-2.36A1.7,1.7,0,0,0,68.9,47,1.66,1.66,0,0,0,69,49.37,1.7,1.7,0,0,0,71.41,49.24Z"/><path class="cls-2" d="M64.79,44.18a2.14,2.14,0,0,0-.16-3,2.18,2.18,0,0,0-3.06.16,2.14,2.14,0,0,0,.16,3A2.18,2.18,0,0,0,64.79,44.18Z"/><path class="cls-2" d="M71.41,27.73a1.66,1.66,0,0,0-.12-2.36,1.7,1.7,0,0,0-2.38.12A1.66,1.66,0,0,0,69,27.85,1.7,1.7,0,0,0,71.41,27.73Z"/><path class="cls-2" d="M64.63,33.43a2.14,2.14,0,0,0-.16-3,2.18,2.18,0,0,0-3.06.16,2.14,2.14,0,0,0,.16,3A2.18,2.18,0,0,0,64.63,33.43Z"/><path class="cls-2" d="M64.86,22.67a2.14,2.14,0,0,0-.16-3,2.18,2.18,0,0,0-3.06.16,2.14,2.14,0,0,0,.16,3A2.18,2.18,0,0,0,64.86,22.67Z"/><path class="cls-2" d="M71.41,17a1.66,1.66,0,0,0-.12-2.36,1.7,1.7,0,0,0-2.38.12A1.66,1.66,0,0,0,69,17.09,1.7,1.7,0,0,0,71.41,17Z"/><path class="cls-2" d="M71.56,70.76a1.66,1.66,0,0,0-.12-2.36,1.7,1.7,0,0,0-2.38.12,1.66,1.66,0,0,0,.12,2.36A1.7,1.7,0,0,0,71.56,70.76Z"/><path class="cls-2" d="M71.56,81.52a1.66,1.66,0,0,0-.12-2.36,1.7,1.7,0,0,0-2.38.12,1.66,1.66,0,0,0,.12,2.36A1.7,1.7,0,0,0,71.56,81.52Z"/><path class="cls-2" d="M65,76.46a2.14,2.14,0,0,0-.16-3,2.18,2.18,0,0,0-3.06.16,2.14,2.14,0,0,0,.16,3A2.18,2.18,0,0,0,65,76.46Z"/><path class="cls-2" d="M71.56,60a1.66,1.66,0,0,0-.12-2.36,1.7,1.7,0,0,0-2.38.12,1.66,1.66,0,0,0,.12,2.36A1.7,1.7,0,0,0,71.56,60Z"/><path class="cls-2" d="M64.79,65.7a2.14,2.14,0,0,0-.16-3,2.18,2.18,0,0,0-3.06.16,2.14,2.14,0,0,0,.16,3A2.18,2.18,0,0,0,64.79,65.7Z"/><path class="cls-2" d="M65,54.94a2.14,2.14,0,0,0-.16-3,2.18,2.18,0,0,0-3.06.16,2.14,2.14,0,0,0,.16,3A2.18,2.18,0,0,0,65,54.94Z"/><line class="cls-3" x1="48.07" y1="98.98" x2="48.14" y2="102.78"/><path class="cls-2" d="M48.14,103.79a1,1,0,0,1-1-1L47.06,99a1,1,0,0,1,2,0l.07,3.79a1,1,0,0,1-1,1Z"/></g></svg>