<svg xmlns="http://www.w3.org/2000/svg" viewBox="0 0 140 120"><defs><style>.cls-1{fill:#767676;}.cls-2{fill:#434343;}.cls-3{fill:#fc5813;}.cls-4{fill:#fff;}</style></defs><title>arial-icon</title><g id="vector"><path class="cls-1" d="M32.16,26a23.1,23.1,0,0,1,1.35-5.53H29.69c-2.33,0-3.94-.68-4.8-2a4.8,4.8,0,0,1-.17-4.27l2.35-6.89H7.94l-.26.25C7.4,7.78,1.16,13.87,1,26H32.16Z"/><path class="cls-1" d="M27.59,15.39a1.82,1.82,0,0,0-.07,1.37c.09.14.51.58,2.17.58H56.77L58.33,10H81.67l1.56,7.37H110.3c1.67,0,2.09-.44,2.18-.58a1.83,1.83,0,0,0-.08-1.38L109.2,6H30.8Z"/><path class="cls-1" d="M115.28,14.18a4.79,4.79,0,0,1-.16,4.27c-.86,1.34-2.48,2-4.81,2h-3.81A23,23,0,0,1,107.84,26H139c-.15-12.12-6.39-18.21-6.66-18.47l-.26-.25H112.94Z"/><path class="cls-2" d="M139,50.72V29.13H108v.43c-.9-2.71-2.36-3.74-3.38-4.12a16,16,0,0,0-1.58-5H80.38l-.22,0H59.84l-.22,0H37a15.89,15.89,0,0,0-1.58,5c-1,.38-2.48,1.41-3.39,4.11v-.42H1V50.72H17.83v50.51L11.26,115H24.9l2-4.32v-60h4.29V79.46a9.69,9.69,0,0,1-2.92,6.69l1,2.83h81.35l1.06-2.82a9.67,9.67,0,0,1-2.93-6.69V50.72h4.3v60l2,4.32h13.64l-6.57-13.77V50.72Zm-106.36,35a12.28,12.28,0,0,0,1.77-6.29V35.63c0-5.62,1.6-7.11,2.11-7.2h66.84c.62.1,2.22,1.59,2.22,7.21V79.46a12.27,12.27,0,0,0,1.77,6.29H32.64Z"/><path class="cls-3" d="M32.64,85.93a12.28,12.28,0,0,0,1.77-6.29V35.8c0-5.62,1.6-7.11,2.11-7.2h66.84c.62.1,2.22,1.59,2.22,7.21V79.63a12.26,12.26,0,0,0,1.77,6.29H32.64Z"/><path class="cls-4" d="M101.22,32.7a15.35,15.35,0,0,1,.26,3.1V79.63a16.18,16.18,0,0,0,.15,2.19H38.36a15.77,15.77,0,0,0,.15-2.19V35.8a15.64,15.64,0,0,1,.26-3.1h62.45m2.14-4.1H36.52c-.51.1-2.11,1.59-2.11,7.2V79.64a12.28,12.28,0,0,1-1.77,6.29h74.71a12.26,12.26,0,0,1-1.77-6.29V35.8c0-5.62-1.6-7.11-2.22-7.21ZM32.64,85.93h0Z"/><path class="cls-4" d="M85.83,53.47a4,4,0,0,0-1.75-.38A4.87,4.87,0,0,0,80,55.57l-.15-10.34,0-1.22H78.59a5.79,5.79,0,0,0-2.24.52c-.23-1.57-.4-2.76-.41-2.78l-.18-1.21-1.21.15a5.78,5.78,0,0,0-2.64,1.16c-1.14.9-2.42,2.65-2,5.85L70.46,52A3.46,3.46,0,0,0,69,51.71l-.33,0a1.29,1.29,0,0,0-.3,0h0c-.42,0-.66,0-5.15,2.8C61.1,55.79,59,57.1,59,57.11h0a2,2,0,0,0-.45.44l-.38.48L57,59.61c-.53.7-1.87,2.48-2.78,3.76S53,65,53.24,65.73l.06.17a6.38,6.38,0,0,0,1,2.21c.49.84,1.18,2,2,3.39,1.47,2.39,3,4.78,3,4.81h0l3.91,6,.37.57h11.8l.31-.79L86.43,55,86.84,54ZM74.62,81.66H64.35l-3.9-6s-6-9.51-5.89-9.82l0-.07c-.06-.14-.11-.28-.17-.43s4.75-6.59,5.21-7.11l2.16,2.66a4.1,4.1,0,0,1-.88,3.47l-.52.69a5.09,5.09,0,0,0,4,1.79,4.73,4.73,0,0,0,4.74-3.33c-.39-1.27-1-3.3-1.56-5.11L66,59.28a5.75,5.75,0,0,1-2.9.89l-.45,0-2.92-2h-.05c.44-.27,8.3-5.22,8.7-5.22h0l.17.07A2.09,2.09,0,0,1,69,53a2.56,2.56,0,0,1,1.68.72l.05.06,2.92,9.45.45-.18-2.3-10a2.43,2.43,0,0,1,0-.49l-.64-5c-.65-5.08,3.57-5.62,3.57-5.62s.25,1.65.53,3.63l0,.13.87,8,.73,11,.33,0,0-2.9.25,2.9-.24-3.53.12-7.53-.84-7.73a4.58,4.58,0,0,1,2.06-.58h0l.18,12.19h-.06L78.86,67l.39-.16L80,58.38l.44-1c1.16-2.49,2.63-3,3.65-3a2.83,2.83,0,0,1,1.19.25ZM63.11,61.42a7,7,0,0,0,3.52-1.06l.16-.09c.35,1.16.7,2.31,1,3.24a3.59,3.59,0,0,1-3.44,2.08,4.08,4.08,0,0,1-2.3-.69A5.5,5.5,0,0,0,63.11,61.42Z"/></g></svg>