<svg xmlns="http://www.w3.org/2000/svg" viewBox="0 0 80 74">
    <path d="M53.52 57.89H28.64a5.72 5.72 0 0 1-5.74-5.69V21.83a5.72 5.72 0 0 1 5.74-5.69h24.88a5.72 5.72 0 0 1 5.74 5.69v30.36a5.72 5.72 0 0 1-5.74 5.7z" fill="#434343" />
    <path fill="#fff" d="M57.37 21.83a3.81 3.81 0 0 0-3.83-3.77h-24.9a3.81 3.81 0 0 0-3.83 3.77v30.36A3.81 3.81 0 0 0 28.64 56h24.88a3.81 3.81 0 0 0 3.83-3.77z" />
    <path d="M51.6 54.09h-21a3.81 3.81 0 0 1-3.83-3.77V23.73A3.81 3.81 0 0 1 30.56 20h21a3.81 3.81 0 0 1 3.83 3.77v26.5a3.81 3.81 0 0 1-3.81 3.82z" fill="#f15d26" />
    <path fill="#fff" d="M51.12 40.17a.47.47 0 0 0-.33-.58l-1-.25a.48.48 0 0 0-.34.89h.1l.92.25a.48.48 0 0 0 .61-.3zM48.44 42.37l.83.48a.48.48 0 0 0 .63-.18.47.47 0 0 0-.18-.63l-.83-.48a.48.48 0 0 0-.63.18.47.47 0 0 0 .18.63zM46.72 44.14l.68.67a.48.48 0 0 0 .68 0 .47.47 0 0 0 0-.67l-.68-.67a.48.48 0 0 0-.68 0 .47.47 0 0 0 0 .67zM44.68 45.46l.48.82a.48.48 0 0 0 .63.18.48.48 0 0 0 .18-.63l-.48-.83a.48.48 0 0 0-.63-.18.47.47 0 0 0-.18.64zM42.45 46.2l.25.93a.48.48 0 1 0 .92-.25l-.25-.88a.48.48 0 0 0-.58-.33.47.47 0 0 0-.34.53zM40.12 47a.48.48 0 0 0 1 0v-1a.48.48 0 0 0-1 0zM37.89 47a.48.48 0 0 0 .58-.33l.25-.92a.47.47 0 0 0-.33-.58.48.48 0 0 0-.58.33l-.25.92a.48.48 0 0 0 .33.58zM35.37 45.87a.48.48 0 0 0 .63-.17l.48-.82a.48.48 0 1 0-.83-.48l-.48.82a.47.47 0 0 0 .18.64zM31.6 42a.48.48 0 0 0 .63.18l.83-.48a.47.47 0 0 0 .18-.63.48.48 0 0 0-.63-.18l-.83.48a.47.47 0 0 0-.18.63zM30.74 39.49a.48.48 0 0 0 .58.33l.91-.23a.47.47 0 0 0 .34-.57.48.48 0 0 0-.58-.34l-.92.25a.47.47 0 0 0-.33.56zM30.56 37.48A.48.48 0 0 0 31 38h1a.48.48 0 0 0 .1-1H31a.48.48 0 0 0-.44.48zM30.79 34.77a.47.47 0 0 0 .33.58l.92.25a.48.48 0 0 0 .34-.89h-.1l-.92-.25a.48.48 0 0 0-.58.34zM31.69 32.23a.47.47 0 0 0 .18.63l.83.47a.48.48 0 0 0 .63-.18.47.47 0 0 0-.18-.63l-.8-.48a.48.48 0 0 0-.66.19zM34.55 30.72l-.68-.72a.48.48 0 0 0-.68 0 .47.47 0 0 0 0 .67l.68.67a.48.48 0 0 0 .68 0 .47.47 0 0 0 0-.67zM34.55 42.79a.48.48 0 0 0-.68 0l-.68.67a.47.47 0 0 0 0 .67.48.48 0 0 0 .68 0l.68-.67a.47.47 0 0 0 0-.67zM36.42 29.37l-.48-.82a.48.48 0 0 0-.63-.18.47.47 0 0 0-.18.63l.48.82a.48.48 0 0 0 .63.18.47.47 0 0 0 .18-.63zM38.67 28.54l-.25-.89a.48.48 0 1 0-.92.25l.25.92a.48.48 0 0 0 .58.33.47.47 0 0 0 .35-.57zM41.08 27a.48.48 0 0 0-1 0v1a.48.48 0 0 0 1 0zM43.34 26.81a.48.48 0 0 0-.58.33l-.25.92a.48.48 0 1 0 .92.25l.25-.92a.47.47 0 0 0-.33-.58zM45.89 27.76a.48.48 0 0 0-.63.18l-.48.82a.47.47 0 0 0 .18.63.48.48 0 0 0 .63-.18l.47-.8a.47.47 0 0 0-.16-.65zM45.16 32.54l-3.95 3.68-3.48-1.89a1 1 0 0 0-1.33.33.87.87 0 0 0 .26 1.21h.09l3.37 1.78a2.15 2.15 0 0 0 2.28 0l4.12-3.85a.87.87 0 0 0 0-1.23 1 1 0 0 0-1.36-.03zM48.08 29.37a.48.48 0 0 0-.68 0l-.68.67a.47.47 0 0 0 0 .67.48.48 0 0 0 .68 0l.68-.67a.47.47 0 0 0 0-.67zM49.83 31.55a.48.48 0 0 0-.63-.18l-.83.47a.48.48 0 0 0-.18.63.48.48 0 0 0 .63.18l.83-.47a.47.47 0 0 0 .18-.63zM51.08 34.08a.48.48 0 0 0-.58-.33l-.92.25a.48.48 0 0 0 .17.94h.08l.92-.25a.47.47 0 0 0 .34-.58zM51.12 37h-1a.48.48 0 1 0-.11.95h1.06a.48.48 0 1 0 .11-.95z" />
    <path fill="#6d6e6e" d="M52.56 15.18h-23a.95.95 0 1 1-.22-1.89h23.22a.95.95 0 0 1 .22 1.89z" />
    <path fill="#767676" d="M50.52 12.34H31.64c-2.83 0-1.89-2.85-1.89-2.85l.94-5.72S31.25 0 34.46 0h13.2c3.22 0 3.77 3.77 3.77 3.77l.94 5.69s.98 2.88-1.85 2.88z" />
    <path fill="#6d6e6e" d="M29.61 58.84h23a.95.95 0 0 1 .22 1.89H29.61a.95.95 0 1 1-.22-1.89z" />
    <path fill="#767676" d="M31.64 61.69h18.88c2.83 0 1.89 2.85 1.89 2.85l-.94 5.69S50.9 74 47.69 74h-13.2c-3.22 0-3.77-3.77-3.77-3.77l-.94-5.69s-.97-2.85 1.86-2.85z" />
</svg>
