<svg xmlns="http://www.w3.org/2000/svg" viewBox="0 0 140 120"><defs><style>.cls-1{fill:#434343;}.cls-2{fill:#fff;}.cls-3{fill:#fc5813;}.cls-4{fill:#6d6e6e;}.cls-5{fill:#767676;}</style></defs><title>arial-icon</title><g id="vector"><path class="cls-1" d="M87.87,93.13H48.29a9.1,9.1,0,0,1-9.13-9.06V35.74a9.1,9.1,0,0,1,9.13-9.06H87.87A9.1,9.1,0,0,1,97,35.74V84.06A9.1,9.1,0,0,1,87.87,93.13Z"/><path class="cls-2" d="M94,35.74a6.06,6.06,0,0,0-6.09-6H48.29a6.06,6.06,0,0,0-6.09,6V84.06a6.06,6.06,0,0,0,6.09,6H87.87a6.06,6.06,0,0,0,6.09-6Z"/><path class="cls-3" d="M84.82,87.08H51.34a6.07,6.07,0,0,1-6.09-6V38.76a6.07,6.07,0,0,1,6.09-6H84.82a6.07,6.07,0,0,1,6.09,6V81A6.07,6.07,0,0,1,84.82,87.08Z"/><path class="cls-2" d="M84.06,64.93a.75.75,0,0,0-.54-.92L82,63.61a.76.76,0,1,0-.39,1.46l1.47.39A.76.76,0,0,0,84.06,64.93Z"/><path class="cls-2" d="M79.79,68.43l1.32.76a.77.77,0,0,0,1-.28.75.75,0,0,0-.28-1l-1.32-.76a.76.76,0,0,0-1,.28A.75.75,0,0,0,79.79,68.43Z"/><path class="cls-2" d="M77.06,71.24l1.08,1.07a.77.77,0,0,0,1.08,0,.75.75,0,0,0,0-1.07l-1.08-1.07a.77.77,0,0,0-1.08,0A.75.75,0,0,0,77.06,71.24Z"/><path class="cls-2" d="M73.81,73.34l.76,1.31a.77.77,0,0,0,1,.28.76.76,0,0,0,.28-1l-.76-1.31a.77.77,0,0,0-1-.28A.75.75,0,0,0,73.81,73.34Z"/><path class="cls-2" d="M70.26,74.52,70.65,76a.76.76,0,0,0,1.47-.39l-.4-1.46a.76.76,0,0,0-.93-.53A.75.75,0,0,0,70.26,74.52Z"/><path class="cls-2" d="M66.56,75.76a.76.76,0,0,0,1.52,0V74.25a.76.76,0,0,0-1.52,0Z"/><path class="cls-2" d="M63,75.75a.76.76,0,0,0,.93-.53l.39-1.46a.75.75,0,0,0-.54-.92.76.76,0,0,0-.93.53l-.39,1.46A.76.76,0,0,0,63,75.75Z"/><path class="cls-2" d="M59,74a.76.76,0,0,0,1-.28l.76-1.31a.76.76,0,0,0-1.32-.76l-.76,1.31A.75.75,0,0,0,59,74Z"/><path class="cls-2" d="M53,67.81a.76.76,0,0,0,1,.28l1.32-.76a.75.75,0,0,0,.28-1,.76.76,0,0,0-1-.28l-1.32.76A.75.75,0,0,0,53,67.81Z"/><path class="cls-2" d="M51.62,63.84a.76.76,0,0,0,.93.53L54,64a.75.75,0,0,0,.54-.92.76.76,0,0,0-.93-.54l-1.47.39A.75.75,0,0,0,51.62,63.84Z"/><path class="cls-2" d="M51.34,60.65a.76.76,0,0,0,.76.76h1.52a.76.76,0,1,0,0-1.51H52.1A.76.76,0,0,0,51.34,60.65Z"/><path class="cls-2" d="M51.71,56.33a.75.75,0,0,0,.54.92l1.47.39a.76.76,0,1,0,.39-1.46l-1.47-.39A.76.76,0,0,0,51.71,56.33Z"/><path class="cls-2" d="M53.14,52.29a.75.75,0,0,0,.28,1l1.32.75a.76.76,0,0,0,1-.28.75.75,0,0,0-.28-1L54.18,52A.77.77,0,0,0,53.14,52.29Z"/><path class="cls-2" d="M57.69,49.88l-1.08-1.07a.77.77,0,0,0-1.08,0,.75.75,0,0,0,0,1.07l1.08,1.07a.77.77,0,0,0,1.08,0A.75.75,0,0,0,57.69,49.88Z"/><path class="cls-2" d="M57.69,69.1a.77.77,0,0,0-1.08,0l-1.08,1.07a.75.75,0,0,0,0,1.07.77.77,0,0,0,1.08,0l1.08-1.07A.75.75,0,0,0,57.69,69.1Z"/><path class="cls-2" d="M60.67,47.74l-.76-1.31a.76.76,0,0,0-1-.28.75.75,0,0,0-.28,1l.76,1.31a.76.76,0,0,0,1,.28A.75.75,0,0,0,60.67,47.74Z"/><path class="cls-2" d="M64.24,46.41,63.85,45a.76.76,0,0,0-1.47.39l.39,1.46a.76.76,0,0,0,.93.53A.75.75,0,0,0,64.24,46.41Z"/><path class="cls-2" d="M68.08,44a.76.76,0,0,0-1.52,0v1.51a.76.76,0,0,0,1.52,0Z"/><path class="cls-2" d="M71.68,43.66a.76.76,0,0,0-.93.53l-.4,1.46a.76.76,0,0,0,1.47.39l.39-1.46A.75.75,0,0,0,71.68,43.66Z"/><path class="cls-2" d="M75.74,45.18a.77.77,0,0,0-1,.28l-.76,1.31a.75.75,0,0,0,.28,1,.76.76,0,0,0,1-.28L76,46.21A.75.75,0,0,0,75.74,45.18Z"/><path class="cls-2" d="M74.57,52.78l-6.28,5.86-5.53-3a1.6,1.6,0,0,0-2.11.53,1.39,1.39,0,0,0,.56,2L66.57,61a3.42,3.42,0,0,0,3.63-.05l6.55-6.12a1.38,1.38,0,0,0,0-2A1.62,1.62,0,0,0,74.57,52.78Z"/><path class="cls-2" d="M79.22,47.74a.77.77,0,0,0-1.08,0l-1.08,1.07a.75.75,0,0,0,0,1.07.77.77,0,0,0,1.08,0l1.08-1.07A.75.75,0,0,0,79.22,47.74Z"/><path class="cls-2" d="M82,51.2a.76.76,0,0,0-1-.28l-1.32.75a.76.76,0,0,0-.28,1,.77.77,0,0,0,1,.28l1.32-.75A.75.75,0,0,0,82,51.2Z"/><path class="cls-2" d="M84,55.24a.76.76,0,0,0-.93-.53l-1.47.39A.76.76,0,1,0,82,56.56l1.47-.39A.75.75,0,0,0,84,55.24Z"/><path class="cls-2" d="M84.06,59.9H82.54a.76.76,0,1,0,0,1.51h1.52a.76.76,0,1,0,0-1.51Z"/><path class="cls-4" d="M86.35,25.16H49.82a1.51,1.51,0,1,1,0-3H86.35a1.51,1.51,0,1,1,0,3Z"/><path class="cls-5" d="M83.1,20.63H53.05c-4.51,0-3-4.53-3-4.53L51.55,7s.89-6,6-6h21c5.12,0,6,6,6,6l1.5,9.06S87.61,20.63,83.1,20.63Z"/><path class="cls-4" d="M49.82,94.64H86.35a1.51,1.51,0,1,1,0,3H49.82a1.51,1.51,0,1,1,0-3Z"/><path class="cls-5" d="M53.05,99.17H83.1c4.51,0,3,4.53,3,4.53l-1.5,9.06s-.89,6-6,6h-21c-5.12,0-6-6-6-6l-1.5-9.06S48.55,99.17,53.05,99.17Z"/></g></svg>