<svg xmlns="http://www.w3.org/2000/svg" viewBox="0 0 140 120"><defs><style>.cls-1{fill:#767676;}.cls-2{fill:#fc5813;}.cls-3{fill:#434343;}</style></defs><title>arial-icon</title><g id="vector"><path class="cls-1" d="M61.37,83.82a20.79,20.79,0,0,1,2.7-41.42c.4,0,.8.06,1.21.06l8.89-8.89A31.31,31.31,0,1,0,61.49,94.4a31.93,31.93,0,0,0,4.92,0,34.77,34.77,0,0,1,.41-10.61A21.22,21.22,0,0,1,61.37,83.82Z"/><path class="cls-2" d="M66.91,52.8v0a10.81,10.81,0,1,0,7.52,7.52L82,52.74l22.39-22.53,1.08.17,3.33.43a1.21,1.21,0,0,0,1-.34l13.06-13.06a1.21,1.21,0,0,0-.7-2.06l-9.08-1.21-1.21-9.08a1.21,1.21,0,0,0-2.06-.7L96.76,17.43a1.21,1.21,0,0,0-.34,1L97,22.72Z"/><path class="cls-3" d="M61.37,104.42A41.31,41.31,0,1,1,81.83,25.91l6.22-6.22L88,19a8.47,8.47,0,0,1,.1-2.78,52.79,52.79,0,1,0-12.19,98.46A35.31,35.31,0,0,1,69,104.2,41.92,41.92,0,0,1,61.37,104.42Z"/><path class="cls-2" d="M83.44,72.45a25.4,25.4,0,0,0,0,35.92h0a25.4,25.4,0,1,0,0-35.93ZM111,94.09h-6v6a3.63,3.63,0,0,1-7.26,0v-6h-6a3.63,3.63,0,1,1,0-7.26v0h6v-6a3.63,3.63,0,1,1,7.26,0v6h6a3.63,3.63,0,0,1,0,7.26Z"/><path class="cls-1" d="M90.31,44.42h0L82,52.74a20.77,20.77,0,0,1,2.42,6.81,35,35,0,0,1,10-3.63,31.19,31.19,0,0,0-4.84-10.77Z"/><path class="cls-3" d="M105.3,30.36l.17,0-1.08-.17L96,38.65h0l.64-.65a41.13,41.13,0,0,1,7.83,17.38,35,35,0,0,1,12.1,3.31A52.53,52.53,0,0,0,105.3,30.36Z"/></g></svg>