<svg xmlns="http://www.w3.org/2000/svg" viewBox="0 0 140 120"><defs><style>.cls-1{fill:#fc5813;}.cls-2{fill:#fff;}.cls-3{fill:#434343;}</style></defs><title>arial-icon</title><g id="vector"><polygon class="cls-1" points="18.37 60.21 27.84 69.69 55.51 69.69 55.51 50.73 27.84 50.73 18.37 60.21"/><polygon class="cls-1" points="105.94 26.06 66.89 26.06 66.89 45.02 105.94 45.02 115.41 35.54 105.94 26.06"/><circle class="cls-2" cx="61.2" cy="10.9" r="6.11"/><rect x="85.84" y="33.66" width="3.79" height="3.79"/><rect x="93.44" y="33.66" width="3.79" height="3.79"/><rect x="78.27" y="33.66" width="3.79" height="3.79"/><path class="cls-3" d="M107.49,48.83l13.29-13.29L107.49,22.25H66.89V19a9.9,9.9,0,1,0-11.38,0V46.92H26.29L13,60.21,26.29,73.5H55.51v41.72h-19V119H85.87v-3.79h-19V48.83Zm-52,20.86H27.84l-9.48-9.48,9.48-9.48H55.51Zm50.43-43.62,9.48,9.48L105.94,45h-39v-19ZM61.2,17a6.11,6.11,0,1,1,6.11-6.11A6.12,6.12,0,0,1,61.2,17Z"/><rect class="cls-3" x="85.84" y="33.66" width="3.79" height="3.79"/><rect class="cls-3" x="93.44" y="33.66" width="3.79" height="3.79"/><rect class="cls-3" x="78.27" y="33.66" width="3.79" height="3.79"/></g></svg>