<svg xmlns="http://www.w3.org/2000/svg" viewBox="0 0 80 74">
    <path d="M71.56 20.4c-.08-6-3.19-9.06-3.33-9.16l-.13-.13H6l-.13.13c-.14.13-3.25 3.14-3.33 9.16H17.1a3.14 3.14 0 0 1 .7-2.35h38.32A4.64 4.64 0 0 1 57 20.4z" fill="#767676"/>
    <path d="M18.38 50a6.06 6.06 0 0 0 .88-3.14V25.17c0-2.79.79-3.53 1-3.58h33.49c.31 0 1.11.79 1.11 3.58v21.75a6 6 0 0 0 .89 3.14H18.38zm53.18-17.33V22H56.05v.21a3 3 0 0 0-1.69-2.09c-.14-.77-34.47-.79-34.57 0a3 3 0 0 0-1.69 2v-.2H2.56v10.75h8.36v25l-3.27 6.87h6.82l1-2.09V32.67h2.13v14.25a4.79 4.79 0 0 1-1.46 3.32l.52 1.39H57.4l.52-1.39a4.77 4.77 0 0 1-1.46-3.32V32.67h2.17V62.4l1 2.09h6.76l-3.25-6.79v-25z" fill="#434343"/>
    <path d="M18.38 50.12a6.06 6.06 0 0 0 .88-3.12V25.27c0-2.79.79-3.53 1-3.58h33.49c.31 0 1.11.79 1.11 3.58V47a6 6 0 0 0 .89 3.14H18.38z" fill="#f15d26"/>
    <path d="M53.75 21.69H20.29c-.25 0-1 .79-1 3.58V47a6.06 6.06 0 0 1-.88 3.14h37.33a6 6 0 0 1-.89-3.14V25.27c0-2.79-.79-3.53-1.11-3.58m-1 2a7.53 7.53 0 0 1 .13 1.54V47a8 8 0 0 0 .08 1H21.28a7.81 7.81 0 0 0 .08-1V25.27a7.67 7.67 0 0 1 .13-1.54z" fill="#fff"/>
</svg>
