<svg xmlns="http://www.w3.org/2000/svg" viewBox="0 0 140 120"><defs><style>.cls-1{fill:#434343;}.cls-2{fill:#767676;}.cls-3{fill:#fc5813;}.cls-4{fill:#fff;}</style></defs><title>arial-icon</title><g id="vector"><path class="cls-1" d="M122,38.88a6.75,6.75,0,0,0-3.62-6.33,8.14,8.14,0,0,0,.44-2.66c0-3.78-2.43-6.75-5.52-6.75h-7.45c4.23-5.28,6.17-9.74,5.77-13.3-.76-6.79-6.07-8.74-8.81-8.82A2.41,2.41,0,0,0,101,1.8a2.33,2.33,0,0,0-.58,1.88c0,.14.39,3.49-2.92,7a10.88,10.88,0,0,1-2.22,1.6A35.28,35.28,0,0,0,89,17.13a135,135,0,0,1-10.51,8.54H68.18A2.34,2.34,0,0,0,65.84,28l0,23.57a2.34,2.34,0,0,0,2.34,2.34h9.12c4,5.84,9.62,9.32,15.18,9.32h8.89a2.13,2.13,0,0,0,.51-.06,4.67,4.67,0,0,0,1,.11H110c3.1,0,5.52-3,5.52-6.75a8,8,0,0,0-.39-2.51,6.73,6.73,0,0,0,3.67-6.34,8.05,8.05,0,0,0-.39-2.49A6.7,6.7,0,0,0,122,38.88Z"/><path class="cls-2" d="M115,47.69c0,1.68-.9,2.93-1.71,2.93H100.82c-.81,0-1.71-1.25-1.71-2.93s.88-2.9,1.68-2.93h12.53C114.12,44.79,115,46,115,47.69Z"/><path class="cls-2" d="M110,59.48h-7.13c-.81,0-1.71-1.26-1.71-2.93a4.37,4.37,0,0,1,.15-1.16A3.34,3.34,0,0,1,102.39,54a1.33,1.33,0,0,0,.32-.35.83.83,0,0,1,.18,0H110c.81,0,1.71,1.25,1.71,2.93S110.83,59.48,110,59.48Z"/><path class="cls-2" d="M113.38,41.81h-14c-.81,0-1.71-1.26-1.71-2.93s.9-2.93,1.71-2.93h17.06c.81,0,1.71,1.26,1.71,2.93s-.9,2.93-1.71,2.93Z"/><path class="cls-2" d="M113.29,32.82H100.82c-.81,0-1.71-1.26-1.71-2.93S100,27,100.82,27h12.48c.81,0,1.71,1.25,1.71,2.93S114.1,32.82,113.29,32.82Z"/><path class="cls-2" d="M100.41,23.62a6,6,0,0,0-4.3,3.51,1.47,1.47,0,0,0-.39,1.14,6.79,6.79,0,0,0-.22,1.62,6.88,6.88,0,0,0,.22,1.69c-.34,3.54-2,8.81-8.71,9.77a1.47,1.47,0,0,0,.21,2.93l.21,0a12.71,12.71,0,0,0,7-3.12,6.35,6.35,0,0,0,2.2,3A6.7,6.7,0,0,0,95.5,47.9a6.41,6.41,0,0,0,3.32,5.72,7.13,7.13,0,0,0-.28,5.8h-6c-5.29,0-9.87-4.24-12.45-8.3a1.47,1.47,0,0,0-1.4-1h-9l0-20.62h9.57a1.48,1.48,0,0,0,.88-.29,146.13,146.13,0,0,0,11.48-9.3,31.66,31.66,0,0,1,5.74-4.32,13.64,13.64,0,0,0,3-2.25,14.12,14.12,0,0,0,3.89-8.17c1.37.51,3.24,1.8,3.6,5.1C108.16,13.2,105.39,18.17,100.41,23.62Z"/><path class="cls-3" d="M31.41,26.66h72.7v78.56a12.29,12.29,0,0,1-12.25,12.25H31.41Z"/><path class="cls-1" d="M91.85,119.29,29.59,118V24.84h76.34v80.38A14.09,14.09,0,0,1,91.85,119.29Zm-58.63-3.64H91.85a10.44,10.44,0,0,0,10.43-10.43V28.48H33.23Z"/><path class="cls-4" d="M31.41,117.22a10.82,10.82,0,0,1-10.34-10.81c0-.33,0-.66,0-1H81.37c0,.21,0,.42,0,.62a11.19,11.19,0,0,0,11.19,11.19l.59,0v.27H31.63Z"/><path class="cls-1" d="M95,119l-64.46,0a12.61,12.61,0,0,1-11.29-12.57c0-.36,0-.73.05-1.15l.15-1.66H83.28l-.09,1.91c0,.18,0,.36,0,.53a9.38,9.38,0,0,0,9.37,9.37l.5,0,1.91-.1Zm-62.55-3.35H83.78a13,13,0,0,1-4.2-8.41H22.92a9,9,0,0,0,8.56,8.16Z"/><path class="cls-1" d="M121.37,38.87a6.75,6.75,0,0,0-3.62-6.33,8.14,8.14,0,0,0,.44-2.66c0-3.78-2.43-6.75-5.52-6.75h-7.45l-5.43.48a9.75,9.75,0,0,0-3,1.59,6.46,6.46,0,0,0-1.33,1.93c-.6,2.38-.67,4.11,0,5.16a19.72,19.72,0,0,0,2.1,2.48S94,36,94,39s1,4.47,2,5.18a6.7,6.7,0,0,0-1.11,3.72,6.41,6.41,0,0,0,3.32,5.72,10,10,0,0,0-.76,3.28,6.79,6.79,0,0,0,.49,2.53,5.68,5.68,0,0,0,3.36,3.76,4.68,4.68,0,0,0,1,.11h7.13c3.1,0,5.52-3,5.52-6.75a8,8,0,0,0-.39-2.51,6.73,6.73,0,0,0,3.67-6.34,8.05,8.05,0,0,0-.39-2.49A6.7,6.7,0,0,0,121.37,38.87Z"/><path class="cls-2" d="M114.38,47.68c0,1.68-.9,2.93-1.71,2.93H100.19c-.81,0-1.71-1.25-1.71-2.93s.88-2.9,1.68-2.93H112.7C113.5,44.78,114.38,46,114.38,47.68Z"/><path class="cls-2" d="M109.39,59.47h-7.13c-.81,0-1.71-1.26-1.71-2.93a4.36,4.36,0,0,1,.15-1.16A3.34,3.34,0,0,1,101.76,54a1.33,1.33,0,0,0,.32-.35.81.81,0,0,1,.18,0h7.13c.81,0,1.71,1.25,1.71,2.93S110.2,59.47,109.39,59.47Z"/><path class="cls-2" d="M112.75,41.81h-14c-.81,0-1.71-1.26-1.71-2.93s.9-2.93,1.71-2.93h17.06c.81,0,1.71,1.26,1.71,2.93s-.9,2.93-1.71,2.93Z"/><path class="cls-2" d="M112.67,32.82H100.19c-.81,0-1.71-1.26-1.71-2.93s.9-2.93,1.71-2.93h12.48c.81,0,1.71,1.25,1.71,2.93S113.47,32.82,112.67,32.82Z"/><ellipse class="cls-4" cx="48.54" cy="52.23" rx="5.02" ry="4.8"/><ellipse class="cls-4" cx="74.99" cy="49.84" rx="2.18" ry="2.09"/><ellipse class="cls-4" cx="79.93" cy="49.84" rx="2.18" ry="2.09"/><ellipse class="cls-4" cx="74.99" cy="54.65" rx="2.18" ry="2.09"/><ellipse class="cls-4" cx="79.93" cy="54.65" rx="2.18" ry="2.09"/><ellipse class="cls-4" cx="84.87" cy="49.84" rx="2.18" ry="2.09"/><ellipse class="cls-4" cx="89.81" cy="49.84" rx="2.18" ry="2.09"/><ellipse class="cls-4" cx="84.87" cy="54.65" rx="2.18" ry="2.09"/><ellipse class="cls-4" cx="89.81" cy="54.65" rx="2.18" ry="2.09"/><ellipse class="cls-4" cx="60.23" cy="52.23" rx="5.02" ry="4.8"/><ellipse class="cls-4" cx="48.54" cy="62.43" rx="5.02" ry="4.8"/><ellipse class="cls-4" cx="74.99" cy="60.04" rx="2.18" ry="2.09"/><ellipse class="cls-4" cx="79.93" cy="60.04" rx="2.18" ry="2.09"/><ellipse class="cls-4" cx="74.99" cy="64.84" rx="2.18" ry="2.09"/><ellipse class="cls-4" cx="79.93" cy="64.84" rx="2.18" ry="2.09"/><ellipse class="cls-4" cx="84.87" cy="60.04" rx="2.18" ry="2.09"/><ellipse class="cls-4" cx="89.81" cy="60.04" rx="2.18" ry="2.09"/><ellipse class="cls-4" cx="84.87" cy="64.84" rx="2.18" ry="2.09"/><ellipse class="cls-4" cx="89.81" cy="64.84" rx="2.18" ry="2.09"/><ellipse class="cls-4" cx="60.23" cy="62.43" rx="5.02" ry="4.8"/><ellipse class="cls-4" cx="48.54" cy="72.51" rx="5.02" ry="4.8"/><ellipse class="cls-4" cx="74.99" cy="70.12" rx="2.18" ry="2.09"/><ellipse class="cls-4" cx="79.93" cy="70.12" rx="2.18" ry="2.09"/><ellipse class="cls-4" cx="74.99" cy="74.92" rx="2.18" ry="2.09"/><ellipse class="cls-4" cx="79.93" cy="74.92" rx="2.18" ry="2.09"/><ellipse class="cls-4" cx="84.87" cy="70.12" rx="2.18" ry="2.09"/><ellipse class="cls-4" cx="89.81" cy="70.12" rx="2.18" ry="2.09"/><ellipse class="cls-4" cx="84.87" cy="74.92" rx="2.18" ry="2.09"/><ellipse class="cls-4" cx="89.81" cy="74.92" rx="2.18" ry="2.09"/><ellipse class="cls-4" cx="60.23" cy="72.51" rx="5.02" ry="4.8"/><ellipse class="cls-4" cx="48.54" cy="82.7" rx="5.02" ry="4.8"/><ellipse class="cls-4" cx="74.99" cy="80.31" rx="2.18" ry="2.09"/><ellipse class="cls-4" cx="79.93" cy="80.31" rx="2.18" ry="2.09"/><ellipse class="cls-4" cx="74.99" cy="85.11" rx="2.18" ry="2.09"/><ellipse class="cls-4" cx="79.93" cy="85.11" rx="2.18" ry="2.09"/><ellipse class="cls-4" cx="84.87" cy="80.31" rx="2.18" ry="2.09"/><ellipse class="cls-4" cx="89.81" cy="80.31" rx="2.18" ry="2.09"/><ellipse class="cls-4" cx="84.87" cy="85.11" rx="2.18" ry="2.09"/><ellipse class="cls-4" cx="89.81" cy="85.11" rx="2.18" ry="2.09"/><ellipse class="cls-4" cx="60.23" cy="82.7" rx="5.02" ry="4.8"/><rect class="cls-4" x="68.62" y="43.01" width="1.36" height="50.88"/></g></svg>