<svg xmlns="http://www.w3.org/2000/svg" viewBox="0 0 80 74">
<path fill="#434343" d="M57.53 46.23l-7.86-3.88-30.08-30.12 3.3-3.09 34.58.06.47 10.16 8.7.81.23 6.9v8.25l-3.95 13.29-5.39-2.38z"/>
<circle fill="#fff" cx="40.94" cy="26.55" r="2.79"></circle>
<path fill="#f15d26" d="M32.58 15.41v2.79H29.8v4.28L45 37.7h4.28v-2.78h2.79v-7.43h-2.78v-1.84h2.79V18.2h-2.79v-2.79zm14.85 12.08h-1.94a4.64 4.64 0 1 1 0-1.86h1.95z"/>
<path d="M14.56 63.16h1.86v-5.55h1.82v5.55h1.86v-3.7H22v3.71h1.86v-3.7h1.86v3.71h1.86v-5.55h1.86v5.55h1.86v-3.71h1.85v3.71H35v-3.71h1.86v3.71h1.84v-5.55h1.85v5.55h1.86v-3.71h1.86v3.71h1.85v-3.71H48v3.71h1.86v-5.55h1.87v5.55h1.86v-3.71h1.86v3.71h1.84v-3.71h1.86v3.71h6.11l-50.7-50.72zm8.36-30.1l21.7 21.75H22.93z" fill="#767676"/>
<path fill="#fff" d="M60.43 9.29v6.12h6.11l-6.11-6.12zM51.15 12.62h3.71v3.71h-3.71z"/>
<path fill="#f15d26" d="M27.94 20.6v-2.4h-2.39l2.39 2.4z"/>
<path fill="#fff" d="M27.01 12.62h3.71v3.71h-3.71zM51.15 36.77h3.71v3.71h-3.71z"/>
<path fill="#f15d26" d="M49.3 39.56h-2.41l2.41 2.4v-2.4z"/>
<path fill="#f15d26" d="M58.57 17.27V8h-39v4.28l5.55 5.55v-7.11h7.44v2.81h16.73v-2.76h7.46v7.43h-2.82v7.45h2.85a4.64 4.64 0 1 1 0 1.86h-2.85v7.41h2.82v7.43h-7.06l18.17 18.17V17.27z"/>
<circle fill="#fff" cx="61.35" cy="26.55" r="2.79"></circle>
<path fill="#434343" d="M22.93 33.06V54.8h21.7zm1.86 4.51l15.38 15.38h-15.4z"/>
<path fill="#434343" d="M65 60.29L54.61 49.88 41.35 36.65l-5.09-5.09-1.06-1.06-1.82-1.82L23 18.26l-1.57-1.6L12.71 8v57h57zm-5.87 2.85v-3.67h-1.87v3.71h-1.85v-3.71h-1.86v3.71h-1.84v-5.55h-1.87v5.55H48v-3.71h-1.88v3.71h-1.86v-3.71h-1.85v3.71h-1.86v-5.55h-1.86v5.55h-1.85v-3.71H35v3.71h-1.87v-3.71h-1.86v3.71h-1.85v-5.55h-1.86v5.55H25.7v-3.71h-1.85v3.71H22v-3.71h-1.87v3.71h-1.89v-5.55h-1.85v5.55h-1.83V12.61h.16l50.49 50.54z"/>
</svg>
