<svg width="137" height="135" xmlns="http://www.w3.org/2000/svg" viewBox="0 0 165 163"><defs><style>.cls-1{fill:#434343;}.cls-2{fill:#fff;}.cls-3{fill:#fc5813;}</style></defs><title>arial-icon</title><g id="vector"><path class="cls-1" d="M165,156V42.85a3.51,3.51,0,0,0-3.5-3.51H149.32V37.23a3.51,3.51,0,0,0-3.51-3.51h-5V0h-7V33.71h-5a3.51,3.51,0,0,0-3.51,3.51v2.11H41.12V37.23a3.51,3.51,0,0,0-3.51-3.51h-5V0h-7V33.71h-5a3.51,3.51,0,0,0-3.51,3.51v2.11H3.51A3.51,3.51,0,0,0,0,42.85V156Z"/><path class="cls-1" d="M3.5,163h158a3.51,3.51,0,0,0,3.51-3.51V46.3H0V159.49A3.51,3.51,0,0,0,3.5,163Z"/><path class="cls-2" d="M142.31,40.74v2.07s0,0,0,0,0,0,0,0V45h-10V42.89s0,0,0,0,0,0,0,0V40.74Z"/><path class="cls-2" d="M24.06,40.74h10v2.08s0,0,0,0,0,0,0,0V45h-10Z"/><path class="cls-3" d="M158,156V46.36h-8.67v2.11A3.51,3.51,0,0,1,145.81,52H128.75a3.51,3.51,0,0,1-3.51-3.51V46.36H41.12v2.11A3.51,3.51,0,0,1,37.62,52H20.56a3.51,3.51,0,0,1-3.51-3.51V46.36H7V156Z"/><path class="cls-2" d="M48.73,124.24H20.1a17.92,17.92,0,0,1,3-8q2.49-3.74,9.36-8.82a27.85,27.85,0,0,0,5.36-4.73A5.3,5.3,0,0,0,39,99.64,3.59,3.59,0,0,0,37.82,97a4.42,4.42,0,0,0-5.9,0A7,7,0,0,0,30.36,101l-9.56-.77A15.22,15.22,0,0,1,22.87,94a9.57,9.57,0,0,1,4.23-3.47,19.15,19.15,0,0,1,7.56-1.21,21.32,21.32,0,0,1,7.84,1.15A9.54,9.54,0,0,1,46.89,94a9.31,9.31,0,0,1,1.6,5.33,10.91,10.91,0,0,1-1.84,6A25.21,25.21,0,0,1,40,111.59q-2.88,2-3.85,2.79t-2.28,2.08h14.9Z"/><path class="cls-2" d="M52.81,106.92q0-9.79,3.53-13.7t10.74-3.91a16.09,16.09,0,0,1,5.69.85,10.55,10.55,0,0,1,3.63,2.23,11.87,11.87,0,0,1,2.21,2.88,15,15,0,0,1,1.3,3.53,32.93,32.93,0,0,1,1,8q0,9.35-3.16,13.68t-10.89,4.33a15.26,15.26,0,0,1-7-1.38,11.33,11.33,0,0,1-4.38-4.05,15.25,15.25,0,0,1-1.93-5.19A35.49,35.49,0,0,1,52.81,106.92Zm9.46,0q0,6.56,1.16,9a3.64,3.64,0,0,0,3.36,2.4,3.52,3.52,0,0,0,2.52-1,6.32,6.32,0,0,0,1.57-3.22,33.76,33.76,0,0,0,.5-6.86q0-6.84-1.16-9.19a3.71,3.71,0,0,0-3.48-2.35,3.55,3.55,0,0,0-3.42,2.4Q62.27,100.46,62.27,106.95Z"/><path class="cls-2" d="M84.81,106.92q0-9.79,3.53-13.7t10.74-3.91a16.09,16.09,0,0,1,5.69.85,10.55,10.55,0,0,1,3.63,2.23,11.87,11.87,0,0,1,2.21,2.88,15,15,0,0,1,1.3,3.53,32.93,32.93,0,0,1,1,8q0,9.35-3.16,13.68t-10.89,4.33a15.26,15.26,0,0,1-7-1.38,11.33,11.33,0,0,1-4.38-4.05,15.25,15.25,0,0,1-1.93-5.19A35.49,35.49,0,0,1,84.81,106.92Zm9.46,0q0,6.56,1.16,9a3.64,3.64,0,0,0,3.36,2.4,3.52,3.52,0,0,0,2.52-1,6.32,6.32,0,0,0,1.57-3.22,33.76,33.76,0,0,0,.5-6.86q0-6.84-1.16-9.19a3.71,3.71,0,0,0-3.48-2.35,3.55,3.55,0,0,0-3.42,2.4Q94.27,100.46,94.27,106.95Z"/><path class="cls-2" d="M126.06,99.83l-9-1.62a11.32,11.32,0,0,1,4.32-6.61q3.2-2.3,9.05-2.3,6.72,0,9.72,2.51a7.87,7.87,0,0,1,3,6.3,7,7,0,0,1-1.22,4,10.35,10.35,0,0,1-3.68,3.16,10.83,10.83,0,0,1,3,1.15,7.43,7.43,0,0,1,2.66,2.78,8.4,8.4,0,0,1,.95,4.11,11.44,11.44,0,0,1-1.57,5.75,10.51,10.51,0,0,1-4.52,4.24,17.29,17.29,0,0,1-7.75,1.49,20.1,20.1,0,0,1-7.39-1.1,11,11,0,0,1-4.45-3.22,14.79,14.79,0,0,1-2.68-5.33l9.53-1.26a7.42,7.42,0,0,0,1.75,4,4.22,4.22,0,0,0,3,1.11,4.14,4.14,0,0,0,3.2-1.41,5.36,5.36,0,0,0,1.28-3.75,5.2,5.2,0,0,0-1.23-3.7,4.35,4.35,0,0,0-3.34-1.31,12.05,12.05,0,0,0-3.09.56l.49-6.82a9,9,0,0,0,1.24.12,4.35,4.35,0,0,0,3.13-1.19,3.79,3.79,0,0,0,1.25-2.83,3.39,3.39,0,0,0-.94-2.51,3.48,3.48,0,0,0-2.58-.94,3.78,3.78,0,0,0-2.74,1A6.17,6.17,0,0,0,126.06,99.83Z"/><path class="cls-2" d="M20.38,79.83l1.53-.24A2.13,2.13,0,0,0,22.62,81a2.5,2.5,0,0,0,1.64.49,2.42,2.42,0,0,0,1.58-.43,1.3,1.3,0,0,0,.51-1,.94.94,0,0,0-.45-.82,6.7,6.7,0,0,0-1.58-.52A14.49,14.49,0,0,1,22,78a2.25,2.25,0,0,1-1.33-2.09,2.35,2.35,0,0,1,.28-1.13,2.5,2.5,0,0,1,.76-.86,3.17,3.17,0,0,1,1-.45A4.66,4.66,0,0,1,24,73.24a5.27,5.27,0,0,1,1.88.31,2.56,2.56,0,0,1,1.2.84,3.27,3.27,0,0,1,.53,1.41L26.09,76a1.65,1.65,0,0,0-.6-1.1,2.18,2.18,0,0,0-1.39-.39,2.52,2.52,0,0,0-1.52.35,1,1,0,0,0-.45.82.85.85,0,0,0,.19.54,1.36,1.36,0,0,0,.59.41q.23.08,1.36.39a18.93,18.93,0,0,1,2.29.72,2.32,2.32,0,0,1,1,.81,2.26,2.26,0,0,1,.37,1.32,2.6,2.6,0,0,1-.45,1.45,2.92,2.92,0,0,1-1.3,1.05,4.74,4.74,0,0,1-1.92.37A4.28,4.28,0,0,1,21.57,82,3.43,3.43,0,0,1,20.38,79.83Z"/><path class="cls-2" d="M29.79,71.75V70h1.54v1.78Zm0,10.8V73.44h1.54v9.11Z"/><path class="cls-2" d="M33.68,82.55V73.44h1.39v1.29a3.27,3.27,0,0,1,2.9-1.5,3.8,3.8,0,0,1,1.51.3,2.38,2.38,0,0,1,1,.78A3,3,0,0,1,41,75.45a8.83,8.83,0,0,1,.09,1.5v5.6H39.54V77a4.16,4.16,0,0,0-.18-1.41,1.49,1.49,0,0,0-.64-.75,2,2,0,0,0-1.08-.28,2.5,2.5,0,0,0-1.7.63,3.09,3.09,0,0,0-.72,2.38v5Z"/><path class="cls-2" d="M49.39,79.21l1.52.2a3.94,3.94,0,0,1-1.27,2.46,3.71,3.71,0,0,1-2.52.89,3.91,3.91,0,0,1-3-1.22A5,5,0,0,1,43,78a6.34,6.34,0,0,1,.49-2.58A3.41,3.41,0,0,1,45,73.79a4.42,4.42,0,0,1,2.17-.55,3.78,3.78,0,0,1,2.43.75,3.44,3.44,0,0,1,1.21,2.13l-1.5.23A2.49,2.49,0,0,0,48.5,75a2,2,0,0,0-1.32-.46,2.4,2.4,0,0,0-1.9.84A4,4,0,0,0,44.56,78a4.1,4.1,0,0,0,.7,2.67,2.29,2.29,0,0,0,1.83.83,2.16,2.16,0,0,0,1.52-.56A2.77,2.77,0,0,0,49.39,79.21Z"/><path class="cls-2" d="M58.46,79.62l1.6.2A3.89,3.89,0,0,1,58.66,82a4.73,4.73,0,0,1-5.78-.46,4.81,4.81,0,0,1-1.17-3.45,5,5,0,0,1,1.18-3.57A4,4,0,0,1,56,73.24a3.89,3.89,0,0,1,3,1.24A4.94,4.94,0,0,1,60.11,78c0,.09,0,.23,0,.41H53.31a3.5,3.5,0,0,0,.85,2.3,2.53,2.53,0,0,0,1.9.8A2.36,2.36,0,0,0,57.51,81,3,3,0,0,0,58.46,79.62Zm-5.07-2.5h5.09a3.09,3.09,0,0,0-.58-1.72A2.37,2.37,0,0,0,56,74.51a2.45,2.45,0,0,0-1.79.71A2.81,2.81,0,0,0,53.4,77.12Z"/></g></svg>
