<svg aria-hidden="true" style="width: 0px; height: 0px; overflow: hidden; position: absolute;" xmlns="http://www.w3.org/2000/svg">
    <symbol id="vk" viewBox="0 0 33 33">
      <path d="M16.67.37A16.13,16.13,0,1,0,32.8,16.5,16.15,16.15,0,0,0,16.67.37Zm0,31A14.84,14.84,0,1,1,31.52,16.5,14.86,14.86,0,0,1,16.67,31.34Zm7.68-15.29c.27-.35.54-.72.81-1.08l.06-.08a8.43,8.43,0,0,0,1.34-2.36,1.17,1.17,0,0,0,0-1,1.32,1.32,0,0,0-.93-.72,2.17,2.17,0,0,0-.37,0H21.86a1.43,1.43,0,0,0-1.28,1c-.18.44-.3.87-.54,1.36A10.91,10.91,0,0,1,18.23,16l0,0a1,1,0,0,1-.2.18c-.09-.06-.12-.14-.11-.31h0V12a.44.44,0,0,0,0-.06,1.67,1.67,0,0,0-1.26-1.52H13a1.77,1.77,0,0,0-1.36.71,1.07,1.07,0,0,0-.1.82.67.67,0,0,0,.55.39c.38.07.5.29.56.7a9.33,9.33,0,0,1,0,2.44,2.5,2.5,0,0,1-.06.66l-.05.1-.09-.05a2.89,2.89,0,0,1-.66-.74,17.31,17.31,0,0,1-1.92-3.63,1.51,1.51,0,0,0-1.32-1c-1.07,0-2.07,0-3,0a1.26,1.26,0,0,0-1,.67,1.21,1.21,0,0,0-.06,1.13,36.69,36.69,0,0,0,3.8,7,10.84,10.84,0,0,0,3.27,3,8.38,8.38,0,0,0,4.19,1h.54a1.36,1.36,0,0,0,1.48-1.45A2.43,2.43,0,0,1,18.12,21c.05-.1,0-.08.08-.09a.26.26,0,0,1,.24,0,2.25,2.25,0,0,1,.47.33l.39.44c.27.31.56.62.85.92a2.47,2.47,0,0,0,2.3.93h3.1a1.26,1.26,0,0,0,.92-.62,1.37,1.37,0,0,0,0-1.3,5.75,5.75,0,0,0-.8-1.07,18.85,18.85,0,0,0-1.55-1.59l-.56-.53h0a.82.82,0,0,1-.3-.54.8.8,0,0,1,.19-.58C23.74,16.86,24,16.45,24.35,16.05Zm-1.83,3,.57.54a18,18,0,0,1,1.48,1.51,4.92,4.92,0,0,1,.69.9c.1.2.08.21,0,.3a.16.16,0,0,1-.12.09H23A2,2,0,0,1,21.29,22c-.28-.29-.64-.6-.91-.89l-.4-.44a3.57,3.57,0,0,0-.64-.65A2.12,2.12,0,0,0,18,19.6a1.51,1.51,0,0,0-1.06.78,3,3,0,0,0-.38,1.46c0,.33-.07.42-.09.44s0,.08-.31.1a6.88,6.88,0,0,1-4-1,8.18,8.18,0,0,1-2.67-2.5,32.71,32.71,0,0,1-3.68-6.53.74.74,0,0,1-.07-.21.75.75,0,0,1,.21,0c1,0,1.42,0,2.48,0,.15,0,.23,0,.36.35a17.55,17.55,0,0,0,2.1,3.71,4.36,4.36,0,0,0,1,1A1.59,1.59,0,0,0,13,17.4c.18-.05.69-.12.86-.53a4.55,4.55,0,0,0,.13-1.1,12.14,12.14,0,0,0-.05-2.89A1.34,1.34,0,0,0,13,11.76a.69.69,0,0,1,.33-.07h3c.19,0,.23.09.25.11a1,1,0,0,1,.11.39v3.66c0,.37.21,1.35,1,1.5h0A1.32,1.32,0,0,0,19,16.85l0,0a12.94,12.94,0,0,0,2.12-3.13c.25-.51.47-1,.65-1.41.09-.23,0-.27.19-.26h3.25c.16,0,.06.06.09.07a.7.7,0,0,1,0,.25,7.21,7.21,0,0,1-1.21,2l-.06.08c-.26.36-.53.72-.8,1.07s-.62.82-.92,1.24A1.46,1.46,0,0,0,22.52,19Z">
      </path>
    </symbol>
    <symbol id="inst" viewBox="0 0 33 33">
      <path d="M16.67.37A16.13,16.13,0,1,0,32.8,16.5,16.15,16.15,0,0,0,16.67.37Zm0,31A14.84,14.84,0,1,1,31.52,16.5,14.86,14.86,0,0,1,16.67,31.34Zm4-23.81H13.08a4.71,4.71,0,0,0-4.7,4.7v7.63a4.71,4.71,0,0,0,4.7,4.7h7.63a4.71,4.71,0,0,0,4.7-4.7V12.23A4.71,4.71,0,0,0,20.72,7.53Zm0,15.52H13.08a3.19,3.19,0,0,1-3.19-3.19V12.23A3.19,3.19,0,0,1,13.08,9h7.63a3.19,3.19,0,0,1,3.19,3.19v7.63h0A3.19,3.19,0,0,1,20.72,23.06ZM16.9,11.66a4.39,4.39,0,1,0,4.39,4.39A4.39,4.39,0,0,0,16.9,11.66Zm0,7.27a2.88,2.88,0,1,1,2.88-2.88A2.88,2.88,0,0,1,16.9,18.93Zm4.57-8.55a1.11,1.11,0,1,0,.78.32A1.11,1.11,0,0,0,21.47,10.38Z">
      </path>
    </symbol>
    <symbol id="search" viewBox="0 0 21 21">
      <path fill-rule="evenodd" d="M19.872 18.93l-4.855-5.079a8.29 8.29 0 0 0 1.932-5.326c0-4.568-3.694-8.285-8.235-8.285C4.173.24.479 3.957.479 8.525s3.694 8.285 8.235 8.285a8.12 8.12 0 0 0 4.718-1.499l4.892 5.117c.204.214.479.332.774.332.279 0 .543-.107.744-.302a1.086 1.086 0 0 0 .03-1.528zM8.714 2.401c3.356 0 6.087 2.747 6.087 6.124s-2.731 6.123-6.087 6.123-6.087-2.746-6.087-6.123c0-3.377 2.731-6.124 6.087-6.124z"/>
    </symbol>
    <symbol id="arrow_down" viewBox="0 0 17 17">
      <path d="M17,5.1l-8.2,8.1l-0.4-0.4l-0.4,0.4L0,5.1l1.3-1.3l7.2,7.1l7.2-7.1L17,5.1z"/>
    </symbol>
    <symbol id="arrow_right" viewBox="0 0 11 11">
      <path d="M8.2,5.7l-4.4,4.7L2.8,9.5l3.8-4l-3.8-4l0.9-0.9l4.4,4.7L7.9,5.5C7.9,5.5,8.2,5.7,8.2,5.7z"/>
    </symbol>
</svg>
